<svg width="46" height="54" viewBox="0 0 46 54" fill="none" xmlns="http://www.w3.org/2000/svg">
<g filter="url(#filter0_d_482_1484)">
<path d="M26.1472 8.08594H19.8528C17.8933 10.3195 15.4334 12.04 12.668 13.1154V21.3604C12.668 28.3331 16.7046 34.5863 23 37.4487C29.2954 34.5863 33.332 28.3331 33.332 21.3604V13.1163C30.5657 12.0409 28.1067 10.3204 26.1472 8.08594ZM30.2423 19.6785L21.8563 28.0637C21.593 28.3269 21.248 28.4589 20.9039 28.4589C20.5589 28.4589 20.2139 28.3268 19.9507 28.0637L15.7577 23.8716C15.2321 23.3451 15.2321 22.4916 15.7577 21.9651C16.2842 21.4395 17.1377 21.4395 17.6642 21.9651L20.9039 25.2049L28.3367 17.773C28.8623 17.2465 29.7158 17.2465 30.2423 17.773C30.7679 18.2994 30.7679 19.152 30.2423 19.6785ZM40.0622 6.28906C36.1774 6.28906 32.6393 4.15438 30.8263 0.71875C30.5935 0.276719 30.1345 0 29.6349 0H16.3649C15.8654 0 15.4063 0.276719 15.1727 0.71875C13.3607 4.15438 9.82262 6.28906 5.92969 6.28906C5.18578 6.28906 4.58203 6.89281 4.58203 7.63672V21.3604C4.58203 26.8777 6.30613 32.1461 9.56746 36.5961C12.8288 41.046 17.3327 44.2758 22.5939 45.9371C22.726 45.9793 22.8634 46 23 46C23.1366 46 23.274 45.9793 23.4061 45.9371C28.6674 44.2759 33.1712 41.0461 36.4325 36.5961C39.6939 32.146 41.418 26.8777 41.418 21.3604V7.63672C41.418 6.89281 40.8061 6.28906 40.0622 6.28906ZM36.0273 21.2993C36.0273 29.5523 31.1174 36.933 23.5184 40.1018C23.3522 40.171 23.1761 40.2051 23 40.2051C22.8239 40.2051 22.6469 40.1709 22.4816 40.1018C14.8826 36.933 9.97266 29.5522 9.97266 21.2993V12.1064C9.97266 11.5243 10.3464 11.0077 10.8998 10.8262C13.7596 9.88551 16.2788 8.15602 18.1844 5.82457C18.4404 5.51102 18.8241 5.32953 19.2284 5.32953H26.7716C27.1849 5.32953 27.6719 5.64937 27.8155 5.82457C29.7211 8.15602 32.2403 9.88551 35.1001 10.8262C35.4946 10.9555 35.7964 11.2547 35.9383 11.6276C35.9402 11.6312 35.941 11.6357 35.9428 11.6393C35.977 11.7318 36.0012 11.8288 36.0148 11.9286C36.0157 11.9384 36.0174 11.9492 36.0184 11.9591C36.0238 12.0076 36.0273 12.0561 36.0273 12.1064V21.2993Z" fill="#1E1B1B"/>
</g>
<defs>
<filter id="filter0_d_482_1484" x="0.582031" y="0" width="44.8359" height="54" filterUnits="userSpaceOnUse" color-interpolation-filters="sRGB">
<feFlood flood-opacity="0" result="BackgroundImageFix"/>
<feColorMatrix in="SourceAlpha" type="matrix" values="0 0 0 0 0 0 0 0 0 0 0 0 0 0 0 0 0 0 127 0" result="hardAlpha"/>
<feOffset dy="4"/>
<feGaussianBlur stdDeviation="2"/>
<feComposite in2="hardAlpha" operator="out"/>
<feColorMatrix type="matrix" values="0 0 0 0 0 0 0 0 0 0 0 0 0 0 0 0 0 0 0.25 0"/>
<feBlend mode="normal" in2="BackgroundImageFix" result="effect1_dropShadow_482_1484"/>
<feBlend mode="normal" in="SourceGraphic" in2="effect1_dropShadow_482_1484" result="shape"/>
</filter>
</defs>
</svg>
