<svg width="225" height="126" viewBox="0 0 225 126" fill="none" xmlns="http://www.w3.org/2000/svg">
<path d="M86.0818 72.2114C85.3311 72.2519 84.5885 72.0397 83.9739 71.6092C83.7171 71.42 83.5105 71.1714 83.372 70.8851C83.2334 70.5987 83.1671 70.2831 83.1788 69.9656V58.3348C83.1726 58.2856 83.1779 58.2356 83.1941 58.1887C83.2103 58.1418 83.2371 58.0991 83.2724 58.064C83.3077 58.029 83.3506 58.0023 83.3978 57.9862C83.445 57.9701 83.4953 57.9649 83.5448 57.971H85.6653C85.9051 57.971 86.0187 58.0965 86.0187 58.3348V69.0622C86.0187 69.539 86.2333 69.7774 86.675 69.7774C86.8623 69.7851 87.0496 69.7639 87.2304 69.7146C87.4828 69.7146 87.6217 69.7899 87.6343 70.0158L87.8236 71.5841C87.8327 71.6298 87.8319 71.677 87.8211 71.7223C87.8103 71.7677 87.7899 71.8102 87.7612 71.8471C87.7325 71.8839 87.6962 71.9142 87.6547 71.936C87.6132 71.9577 87.5675 71.9703 87.5207 71.973C87.0562 72.1255 86.5709 72.2059 86.0818 72.2114Z" fill="#1E1B1B"/>
<path d="M98.0091 70.8691C96.9436 71.7442 95.6047 72.2229 94.2226 72.2229C92.8404 72.2229 91.5015 71.7442 90.436 70.8691C89.4995 69.9294 88.9741 68.66 88.9741 67.3372C88.9741 66.0145 89.4995 64.7451 90.436 63.8054C91.5036 62.9348 92.8417 62.459 94.2226 62.459C95.6034 62.459 96.9416 62.9348 98.0091 63.8054C98.924 64.7538 99.4349 66.017 99.4349 67.331C99.4349 68.645 98.924 69.9082 98.0091 70.8566V70.8691ZM92.4303 69.213C92.9247 69.6582 93.568 69.9048 94.2352 69.9048C94.9023 69.9048 95.5457 69.6582 96.0401 69.213C96.4876 68.7015 96.7341 68.0465 96.7341 67.3686C96.7341 66.6908 96.4876 66.0357 96.0401 65.5243C95.5457 65.079 94.9023 64.8324 94.2352 64.8324C93.568 64.8324 92.9247 65.079 92.4303 65.5243C91.9828 66.0357 91.7363 66.6908 91.7363 67.3686C91.7363 68.0465 91.9828 68.7015 92.4303 69.213Z" fill="#1E1B1B"/>
<path d="M111.111 62.7763C111.35 62.7763 111.464 62.9018 111.464 63.1402V72.1361C111.486 72.7433 111.372 73.3477 111.129 73.9055C110.887 74.4632 110.523 74.9603 110.063 75.3606C109.042 76.2256 107.73 76.674 106.39 76.6153C105.18 76.6576 103.986 76.3291 102.969 75.6743C102.536 75.391 102.165 75.0221 101.88 74.5904C101.596 74.1587 101.404 73.6735 101.316 73.1649C101.316 72.914 101.316 72.8011 101.657 72.8011H103.777C103.867 72.8041 103.955 72.833 104.028 72.8842C104.102 72.9354 104.16 73.0068 104.194 73.0897C104.331 73.4707 104.605 73.7879 104.964 73.9805C105.4 74.2044 105.886 74.3165 106.377 74.3067C106.674 74.3228 106.97 74.2801 107.25 74.181C107.529 74.0819 107.786 73.9284 108.006 73.7295C108.206 73.5215 108.362 73.2752 108.464 73.0057C108.566 72.7362 108.612 72.4489 108.599 72.1612V71.3708C107.84 71.9259 106.916 72.2129 105.973 72.1863C105.314 72.2101 104.657 72.1013 104.041 71.8663C103.425 71.6313 102.863 71.2749 102.389 70.8187C101.479 69.8829 100.97 68.6323 100.97 67.3307C100.97 66.0292 101.479 64.7786 102.389 63.8428C102.865 63.3906 103.428 63.0377 104.043 62.805C104.659 62.5723 105.315 62.4644 105.973 62.4877C106.943 62.4623 107.892 62.7678 108.662 63.3535V63.1527C108.656 63.1046 108.661 63.0559 108.677 63.01C108.692 62.9641 108.718 62.9222 108.752 62.8873C108.786 62.8525 108.827 62.8256 108.872 62.8085C108.918 62.7915 108.967 62.7848 109.015 62.7889L111.111 62.7763ZM106.213 69.953C106.538 69.963 106.862 69.9019 107.161 69.774C107.459 69.6461 107.726 69.4545 107.942 69.2127C108.362 68.6741 108.59 68.0121 108.59 67.3307C108.59 66.6494 108.362 65.9874 107.942 65.4487C107.727 65.2103 107.462 65.0216 107.165 64.8958C106.869 64.7701 106.548 64.7105 106.226 64.721C105.897 64.7108 105.57 64.7716 105.267 64.8994C104.964 65.0273 104.693 65.219 104.471 65.4613C104.007 65.9766 103.762 66.6517 103.79 67.3433C103.767 68.0281 104.006 68.6961 104.459 69.2127C104.68 69.4544 104.952 69.6457 105.255 69.7734C105.558 69.9012 105.884 69.9624 106.213 69.953Z" fill="#1E1B1B"/>
<path d="M122.357 70.8689C121.289 71.7395 119.951 72.2153 118.57 72.2153C117.19 72.2153 115.851 71.7395 114.784 70.8689C113.868 69.9183 113.357 68.6531 113.357 67.337C113.357 66.0209 113.868 64.7556 114.784 63.8051C115.852 62.9368 117.19 62.4624 118.57 62.4624C119.951 62.4624 121.288 62.9368 122.357 63.8051C123.272 64.7535 123.783 66.0167 123.783 67.3307C123.783 68.6447 123.272 69.9079 122.357 70.8563V70.8689ZM116.765 69.2127C117.007 69.4415 117.293 69.6204 117.605 69.7388C117.917 69.8573 118.249 69.913 118.583 69.9028C118.915 69.9113 119.245 69.8548 119.555 69.7364C119.864 69.618 120.147 69.44 120.388 69.2127C120.828 68.6978 121.07 68.0441 121.07 67.3684C121.07 66.6926 120.828 66.0389 120.388 65.524C120.147 65.2967 119.864 65.1188 119.555 65.0004C119.245 64.8819 118.915 64.8254 118.583 64.8339C118.249 64.8237 117.917 64.8795 117.605 64.9979C117.293 65.1164 117.007 65.2952 116.765 65.524C116.325 66.0389 116.084 66.6926 116.084 67.3684C116.084 68.0441 116.325 68.6978 116.765 69.2127Z" fill="#1E1B1B"/>
<path d="M128.34 60.6436C128.006 60.9339 127.578 61.0939 127.134 61.0939C126.691 61.0939 126.262 60.9339 125.929 60.6436C125.777 60.5017 125.657 60.3306 125.575 60.1407C125.492 59.9508 125.45 59.7463 125.45 59.5395C125.45 59.3327 125.492 59.1281 125.575 58.9383C125.657 58.7484 125.777 58.5773 125.929 58.4354C126.266 58.1523 126.693 57.9971 127.134 57.9971C127.575 57.9971 128.002 58.1523 128.34 58.4354C128.491 58.5773 128.611 58.7484 128.694 58.9383C128.776 59.1281 128.819 59.3327 128.819 59.5395C128.819 59.7463 128.776 59.9508 128.694 60.1407C128.611 60.3306 128.491 60.5017 128.34 60.6436ZM128.605 72.2116C127.854 72.2482 127.113 72.0364 126.497 71.6094C126.244 71.4173 126.041 71.168 125.905 70.882C125.769 70.5961 125.703 70.2819 125.714 69.9658V63.1404C125.708 63.0911 125.713 63.0412 125.729 62.9942C125.746 62.9473 125.772 62.9047 125.808 62.8696C125.843 62.8345 125.886 62.8079 125.933 62.7918C125.98 62.7756 126.031 62.7704 126.08 62.7765H128.201C128.44 62.7765 128.554 62.902 128.554 63.1404V69.0624C128.554 69.5392 128.769 69.7776 129.198 69.7776C129.389 69.7844 129.581 69.7633 129.766 69.7148C130.018 69.7148 130.157 69.7901 130.17 70.0159L130.359 71.5843C130.368 71.63 130.367 71.6771 130.356 71.7225C130.346 71.7679 130.325 71.8104 130.297 71.8473C130.268 71.8841 130.232 71.9144 130.19 71.9362C130.149 71.9579 130.103 71.9705 130.056 71.9732C129.588 72.1266 129.098 72.207 128.605 72.2116Z" fill="#1E1B1B"/>
<path d="M138.16 62.4754C138.823 62.4493 139.483 62.5559 140.103 62.7886C140.724 63.0214 141.29 63.3757 141.77 63.8304C142.663 64.7826 143.159 66.0357 143.159 67.3372C143.159 68.6387 142.663 69.8918 141.77 70.844C141.293 71.3027 140.727 71.6604 140.106 71.8955C139.486 72.1306 138.824 72.2381 138.16 72.2115C137.215 72.2324 136.289 71.9461 135.522 71.396V75.9254C135.522 76.1637 135.396 76.2767 135.156 76.2767H133.036C132.987 76.2857 132.937 76.2828 132.89 76.2683C132.843 76.2538 132.801 76.2282 132.766 76.1936C132.731 76.159 132.705 76.1165 132.691 76.0697C132.676 76.023 132.673 75.9735 132.682 75.9254V65.6371C132.697 65.5365 132.688 65.4338 132.656 65.3372C132.624 65.2407 132.569 65.1529 132.497 65.081C132.425 65.0091 132.336 64.955 132.239 64.923C132.142 64.891 132.039 64.8821 131.938 64.8969H131.521C131.243 64.8969 131.105 64.7965 131.105 64.5957V63.1152C131.098 63.0236 131.123 62.9325 131.176 62.8572C131.229 62.7819 131.306 62.7268 131.395 62.7012C131.831 62.5434 132.294 62.4669 132.758 62.4754C133.221 62.4346 133.686 62.5322 134.093 62.7558C134.5 62.9793 134.831 63.3185 135.043 63.73C135.449 63.3212 135.935 62.9991 136.471 62.7834C137.007 62.5676 137.582 62.4628 138.16 62.4754ZM136.191 69.2129C136.416 69.4467 136.687 69.6328 136.986 69.7599C137.285 69.887 137.607 69.9525 137.933 69.9525C138.259 69.9525 138.581 69.887 138.88 69.7599C139.179 69.6328 139.45 69.4467 139.675 69.2129C140.149 68.6873 140.398 67.9986 140.369 67.2933C140.402 66.5873 140.152 65.8971 139.675 65.3736C139.45 65.1398 139.179 64.9538 138.88 64.8266C138.581 64.6995 138.259 64.634 137.933 64.634C137.607 64.634 137.285 64.6995 136.986 64.8266C136.687 64.9538 136.416 65.1398 136.191 65.3736C135.732 65.9063 135.493 66.5923 135.522 67.2933C135.497 67.9937 135.735 68.6783 136.191 69.2129Z" fill="#1E1B1B"/>
<path d="M149.116 72.2116C147.983 72.2579 146.859 71.9884 145.872 71.4337C145.476 71.1965 145.138 70.8738 144.885 70.4893C144.632 70.1049 144.468 69.6686 144.408 69.2129C144.408 68.962 144.496 68.8365 144.774 68.8365H146.629C146.717 68.84 146.803 68.8675 146.877 68.9162C146.95 68.9649 147.009 69.0329 147.046 69.1126C147.311 69.7901 148.005 70.1288 149.116 70.1288C149.503 70.1464 149.889 70.0689 150.239 69.903C150.36 69.8488 150.464 69.7629 150.539 69.6546C150.615 69.5464 150.659 69.4197 150.668 69.2882C150.668 68.962 150.466 68.7362 150.062 68.5856C149.583 68.4271 149.088 68.3219 148.586 68.2719C147.99 68.205 147.4 68.1002 146.819 67.9583C146.253 67.831 145.738 67.5382 145.342 67.1176C145.108 66.8318 144.936 66.5012 144.837 66.1465C144.737 65.7918 144.712 65.4205 144.763 65.0556C144.814 64.6908 144.939 64.3403 145.132 64.026C145.325 63.7116 145.581 63.44 145.884 63.2282C146.794 62.6521 147.862 62.3715 148.939 62.4252C149.982 62.3901 151.014 62.6466 151.918 63.1654C152.282 63.3705 152.596 63.6537 152.836 63.9945C153.076 64.3352 153.237 64.725 153.306 65.1353C153.306 65.3862 153.193 65.5117 152.965 65.5117H151.097C151.019 65.5163 150.94 65.4972 150.873 65.4569C150.805 65.4166 150.752 65.357 150.719 65.2858C150.594 64.9887 150.359 64.7506 150.062 64.6209C149.728 64.4469 149.354 64.3605 148.977 64.3699C148.607 64.3499 148.238 64.4233 147.904 64.5832C147.786 64.6283 147.685 64.7074 147.613 64.8103C147.541 64.9131 147.502 65.0351 147.5 65.1604C147.508 65.3319 147.571 65.4964 147.68 65.6297C147.789 65.7629 147.939 65.8579 148.106 65.9006C148.591 66.0822 149.095 66.2085 149.608 66.277C150.198 66.3542 150.784 66.4631 151.362 66.6032C151.928 66.7305 152.442 67.0233 152.839 67.4439C153.051 67.6755 153.215 67.9467 153.321 68.2418C153.428 68.5368 153.474 68.8498 153.458 69.1627C153.469 69.5965 153.366 70.0256 153.16 70.4082C152.955 70.7908 152.653 71.1139 152.284 71.3459C151.341 71.9476 150.236 72.2496 149.116 72.2116Z" fill="#1E1B1B"/>
<path d="M166.799 71.5841C166.806 71.6287 166.804 71.6742 166.794 71.718C166.783 71.7618 166.763 71.8031 166.736 71.8393C166.709 71.8755 166.675 71.906 166.636 71.929C166.597 71.952 166.554 71.9669 166.509 71.9731C166.048 72.1226 165.567 72.203 165.083 72.2114C164.603 72.2608 164.118 72.1863 163.676 71.9951C163.234 71.8038 162.849 71.5024 162.558 71.1199C161.667 71.8819 160.514 72.2728 159.34 72.2114C158.794 72.2364 158.25 72.1477 157.741 71.9511C157.233 71.7545 156.771 71.4542 156.386 71.0697C156.004 70.6668 155.707 70.1913 155.514 69.6717C155.321 69.1521 155.236 68.5992 155.263 68.046V63.1402C155.263 62.9018 155.376 62.7764 155.616 62.7764H157.737C157.976 62.7764 158.09 62.9018 158.09 63.1402V67.6696C158.067 68.2339 158.261 68.7857 158.633 69.2128C158.818 69.4085 159.044 69.5623 159.294 69.664C159.545 69.7658 159.814 69.813 160.084 69.8025C160.361 69.8145 160.637 69.7719 160.897 69.6772C161.157 69.5824 161.396 69.4374 161.599 69.2504C161.791 69.0534 161.941 68.8193 162.039 68.5624C162.136 68.3056 162.18 68.0316 162.167 67.7574V63.1402C162.167 62.9018 162.28 62.7764 162.52 62.7764H164.666C164.906 62.7764 165.019 62.9018 165.019 63.1402V69.0497C165.019 69.539 165.234 69.7774 165.651 69.7774C165.846 69.7849 166.042 69.7638 166.231 69.7147C166.279 69.7014 166.329 69.699 166.378 69.7077C166.427 69.7164 166.473 69.736 166.513 69.7649C166.553 69.7939 166.586 69.8315 166.609 69.875C166.633 69.9184 166.646 69.9666 166.648 70.0158L166.799 71.5841Z" fill="#1E1B1B"/>
<path d="M186.855 71.5842C186.866 71.6292 186.867 71.676 186.858 71.7214C186.849 71.7668 186.83 71.8096 186.802 71.8468C186.774 71.884 186.739 71.9146 186.698 71.9365C186.657 71.9583 186.611 71.9708 186.565 71.9732C186.096 72.1248 185.606 72.2052 185.113 72.2116C184.363 72.2501 183.621 72.0381 183.005 71.6093C182.739 71.4257 182.523 71.1796 182.375 70.8929C182.228 70.6062 182.154 70.2877 182.16 69.9657V67.0173C182.186 66.4546 181.997 65.903 181.629 65.474C181.452 65.2779 181.234 65.1233 180.989 65.0213C180.745 64.9194 180.481 64.8726 180.216 64.8843C179.977 64.8754 179.739 64.9204 179.521 65.016C179.302 65.1117 179.108 65.2554 178.954 65.4364C178.62 65.8568 178.45 66.3822 178.474 66.9169V71.5466C178.474 71.785 178.36 71.9104 178.121 71.9104H175.987C175.938 71.9166 175.888 71.9113 175.84 71.8952C175.793 71.8791 175.75 71.8525 175.715 71.8174C175.68 71.7823 175.653 71.7397 175.637 71.6927C175.62 71.6458 175.615 71.5958 175.621 71.5466V67.0173C175.649 66.4608 175.474 65.913 175.129 65.474C174.975 65.2896 174.782 65.1412 174.564 65.0392C174.346 64.9373 174.108 64.8844 173.867 64.8843C173.609 64.874 173.353 64.9178 173.113 65.013C172.874 65.1081 172.658 65.2524 172.479 65.4364C172.118 65.8434 171.932 66.375 171.961 66.9169V71.5466C171.967 71.5958 171.962 71.6458 171.946 71.6927C171.929 71.7397 171.903 71.7823 171.867 71.8174C171.832 71.8525 171.789 71.8791 171.742 71.8952C171.695 71.9113 171.645 71.9166 171.595 71.9104H169.538C169.298 71.9104 169.184 71.785 169.184 71.5466V65.6371C169.199 65.5365 169.19 65.4338 169.158 65.3373C169.126 65.2407 169.071 65.153 168.999 65.081C168.927 65.0091 168.838 64.955 168.741 64.923C168.644 64.8911 168.541 64.8821 168.44 64.8969H168.023C167.745 64.8969 167.606 64.7965 167.606 64.5958V63.1152C167.6 63.0236 167.625 62.9326 167.678 62.8572C167.731 62.7819 167.808 62.7268 167.897 62.7012C168.333 62.5434 168.795 62.4669 169.26 62.4754C169.706 62.4376 170.153 62.526 170.551 62.7302C170.948 62.9344 171.28 63.2463 171.507 63.6297C171.932 63.2285 172.437 62.9189 172.989 62.7203C173.54 62.5217 174.127 62.4383 174.713 62.4754C175.281 62.4478 175.849 62.5538 176.368 62.7849C176.888 63.016 177.346 63.3655 177.704 63.8053C178.122 63.354 178.635 63.0006 179.207 62.7706C179.779 62.5406 180.395 62.4398 181.011 62.4754C181.562 62.4497 182.112 62.538 182.627 62.7345C183.142 62.931 183.61 63.2316 184.002 63.6171C184.386 64.0192 184.683 64.4946 184.876 65.0144C185.069 65.5341 185.154 66.0875 185.126 66.6409V69.0624C185.126 69.5391 185.34 69.7775 185.744 69.7775C185.94 69.7866 186.136 69.7654 186.325 69.7148C186.586 69.7148 186.724 69.8152 186.741 70.0159L186.855 71.5842Z" fill="#1E1B1B"/>
<path d="M38.8505 61.1456C39.7817 57.4251 41.9384 54.1212 44.9771 51.7601C48.0157 49.3989 51.7618 48.1162 55.6187 48.1162C59.4756 48.1162 63.2216 49.3989 66.2603 51.7601C69.299 54.1212 71.4557 57.4251 72.3869 61.1456H70.8723C68.3172 61.1082 65.8145 61.8672 63.7156 63.3161C63.5945 63.4033 63.468 63.4829 63.337 63.5545H63.1603C63.0292 63.4829 62.9027 63.4033 62.7816 63.3161C60.6642 61.9008 58.1704 61.1448 55.6187 61.1448C53.067 61.1448 50.5732 61.9008 48.4558 63.3161C48.3346 63.4033 48.2082 63.4829 48.0771 63.5545H47.9004C47.7693 63.4829 47.6429 63.4033 47.5217 63.3161C45.4229 61.8672 42.9202 61.1082 40.3651 61.1456H38.8505ZM68.1459 69.0123C68.9234 68.4104 69.8871 68.0955 70.8723 68.1215H72.9044V64.094H70.8723C69.137 64.0732 67.4415 64.6101 66.0381 65.6247C65.2483 66.2035 64.2929 66.5157 63.3117 66.5157C62.3306 66.5157 61.3752 66.2035 60.5854 65.6247C59.1464 64.629 57.4351 64.0952 55.6818 64.0952C53.9285 64.0952 52.2172 64.629 50.7782 65.6247C49.9884 66.2035 49.033 66.5157 48.0519 66.5157C47.0707 66.5157 46.1153 66.2035 45.3255 65.6247C43.9048 64.5971 42.185 64.0595 40.4282 64.094H38.333V68.1215H40.3651C41.3503 68.0955 42.3139 68.4104 43.0915 69.0123C44.5278 70.0087 46.2372 70.543 47.9888 70.543C49.7403 70.543 51.4497 70.0087 52.8861 69.0123C53.6646 68.4123 54.6275 68.0976 55.6124 68.1215C56.5978 68.0934 57.5622 68.4085 58.3387 69.0123C59.7777 70.0081 61.489 70.5418 63.2423 70.5418C64.9956 70.5418 66.7069 70.0081 68.1459 69.0123ZM68.1459 76.2141C68.9234 75.6122 69.8871 75.2973 70.8723 75.3233H72.9044V71.2958H70.8723C69.137 71.2749 67.4415 71.8118 66.0381 72.8265C65.2483 73.4053 64.2929 73.7175 63.3117 73.7175C62.3306 73.7175 61.3752 73.4053 60.5854 72.8265C59.1464 71.8308 57.4351 71.297 55.6818 71.297C53.9285 71.297 52.2172 71.8308 50.7782 72.8265C49.9884 73.4053 49.033 73.7175 48.0519 73.7175C47.0707 73.7175 46.1153 73.4053 45.3255 72.8265C43.9048 71.7989 42.185 71.2613 40.4282 71.2958H38.333V75.3233H40.3651C41.3503 75.2973 42.3139 75.6122 43.0915 76.2141C44.5278 77.2105 46.2372 77.7448 47.9888 77.7448C49.7403 77.7448 51.4497 77.2105 52.8861 76.2141C53.6646 75.614 54.6275 75.2994 55.6124 75.3233C56.5978 75.2952 57.5622 75.6103 58.3387 76.2141C59.7777 77.2099 61.489 77.7436 63.2423 77.7436C64.9956 77.7436 66.7069 77.2099 68.1459 76.2141Z" fill="#1E1B1B"/>
</svg>
